# Made in Blockbench 5.0.7
mtllib skin.mtl

o Hat Layer
v 0.41512050415681695 1.9829247669462151 0.15481524023039098
v 0.018474586821052116 2.0423147649095195 -0.23958442305900426
v 0.39649361951229223 1.4245443460852965 0.08946545241418802
v -0.00015229782347260523 1.4839343440486004 -0.3049342108752072
v -0.3799363887171591 2.0092938057910756 0.15612324786688125
v 0.016709528618605682 1.9499038078277717 0.5505229111562766
v -0.39856327336168385 1.450913384930157 0.09077346005067827
v -0.0019173560259190398 1.391523386966853 0.4851731233400735
vt 0.625 0.875
vt 0.75 0.875
vt 0.75 0.75
vt 0.625 0.75
vt 0.5 0.875
vt 0.625 0.875
vt 0.625 0.75
vt 0.5 0.75
vt 0.875 0.875
vt 1 0.875
vt 1 0.75
vt 0.875 0.75
vt 0.75 0.875
vt 0.875 0.875
vt 0.875 0.75
vt 0.75 0.75
vt 0.75 0.875
vt 0.625 0.875
vt 0.625 1
vt 0.75 1
vt 0.875 1
vt 0.75 1
vt 0.75 0.875
vt 0.875 0.875
vn -0.7051482974858042 0.10558221860142951 -0.7011549569589249
vn 0.7082861787345979 0.058703927321677285 -0.7034803038682409
vn 0.7051482974858042 -0.10558221860142951 0.7011549569589249
vn -0.7082861787345979 -0.058703927321677285 0.7034803038682409
vn 0.03311446159026616 0.9926763037527446 0.11617740056213857
vn -0.03311446159026616 -0.9926763037527446 -0.11617740056213857
usemtl m_c3fb989f-e71e-4acf-59b7-53ef3bfde304
f 4/4/1 7/3/1 5/2/1 2/1/1
f 3/8/2 4/7/2 2/6/2 1/5/2
f 8/12/3 3/11/3 1/10/3 6/9/3
f 7/16/4 8/15/4 6/14/4 5/13/4
f 6/20/5 1/19/5 2/18/5 5/17/5
f 7/24/6 4/23/6 3/22/6 8/21/6
o Head
v 0.36991584985023357 1.9533685790564344 0.15125736355374025
v 0.017341701107331506 2.0061596883571493 -0.19932011492572216
v 0.35335861905510046 1.457030427180062 0.09316866327267098
v 0.0007844703121984015 1.5098215364807768 -0.25740881520679143
v -0.33680138825996736 1.9768077246963103 0.1524200370083983
v 0.015772760482934675 1.9240166153955955 0.5029975154878608
v -0.35335861905510046 1.480469572819938 0.09433133672732902
v -0.0007844703121984292 1.4276784635192232 0.44490881520679143
vt 0.125 0.875
vt 0.25 0.875
vt 0.25 0.75
vt 0.125 0.75
vt 0 0.875
vt 0.125 0.875
vt 0.125 0.75
vt 0 0.75
vt 0.375 0.875
vt 0.5 0.875
vt 0.5 0.75
vt 0.375 0.75
vt 0.25 0.875
vt 0.375 0.875
vt 0.375 0.75
vt 0.25 0.75
vt 0.25 0.875
vt 0.125 0.875
vt 0.125 1
vt 0.25 1
vt 0.375 1
vt 0.25 1
vt 0.25 0.875
vt 0.375 0.875
vn -0.7051482974858042 0.10558221860142951 -0.7011549569589249
vn 0.7082861787345979 0.058703927321677285 -0.7034803038682409
vn 0.7051482974858042 -0.10558221860142951 0.7011549569589249
vn -0.7082861787345979 -0.058703927321677285 0.7034803038682409
vn 0.03311446159026616 0.9926763037527446 0.11617740056213857
vn -0.03311446159026616 -0.9926763037527446 -0.11617740056213857
usemtl m_c3fb989f-e71e-4acf-59b7-53ef3bfde304
f 12/28/7 15/27/7 13/26/7 10/25/7
f 11/32/8 12/31/8 10/30/8 9/29/8
f 16/36/9 11/35/9 9/34/9 14/33/9
f 15/40/10 16/39/10 14/38/10 13/37/10
f 14/44/11 9/43/11 10/42/11 13/41/11
f 15/48/12 12/47/12 11/46/12 16/45/12
o Body Layer
v 0.27694254360241805 1.477407979465431 0.24260297633518313
v 0.25252326861800595 1.5261536067205586 -0.03331209272183633
v 0.2710080721228118 0.7080043399689975 0.10719845618205026
v 0.24658879713839973 0.7567499672241254 -0.1687166128749692
v -0.27670516474323387 1.5221181661144265 0.012813204470942141
v -0.2522858897588217 1.4733725388592989 0.2887282735279616
v -0.2826396362228401 0.7527145266179931 -0.12259131568219073
v -0.25822036123842795 0.7039688993628652 0.15332375337482873
vt 0.3125 0.4375
vt 0.4375 0.4375
vt 0.4375 0.25
vt 0.3125 0.25
vt 0.25 0.4375
vt 0.3125 0.4375
vt 0.3125 0.25
vt 0.25 0.25
vt 0.5 0.4375
vt 0.625 0.4375
vt 0.625 0.25
vt 0.5 0.25
vt 0.4375 0.4375
vt 0.5 0.4375
vt 0.5 0.25
vt 0.4375 0.25
vt 0.4375 0.4375
vt 0.3125 0.4375
vt 0.3125 0.5
vt 0.4375 0.5
vt 0.5625 0.5
vt 0.4375 0.5
vt 0.4375 0.4375
vt 0.5625 0.4375
vn -0.08682408883346539 0.1733177857960101 -0.9810313566471802
vn 0.9961946980917455 0.0075961234938959985 -0.08682408883346539
vn 0.08682408883346539 -0.1733177857960101 0.9810313566471802
vn -0.9961946980917455 -0.0075961234938959985 0.08682408883346539
vn 0.007596123493895997 0.9848366585554348 0.1733177857960101
vn -0.007596123493895997 -0.9848366585554348 -0.1733177857960101
usemtl m_c3fb989f-e71e-4acf-59b7-53ef3bfde304
f 20/52/13 23/51/13 21/50/13 18/49/13
f 19/56/14 20/55/14 18/54/14 17/53/14
f 24/60/15 19/59/15 17/58/15 22/57/15
f 23/64/16 24/63/16 22/62/16 21/61/16
f 22/68/17 17/67/17 18/66/17 21/65/17
f 23/72/18 20/71/18 19/70/18 24/69/18
o Body
v 0.25990168562711957 1.4646093076489728 0.22592289737253118
v 0.23819566341875323 1.5079387540979754 -0.01933494178926387
v 0.25420459300669757 0.7259818137323967 0.09593455802552361
v 0.23249857079833122 0.7693112601813993 -0.14932328113627144
v -0.25990168562711957 1.5041406923510272 0.024077102627468844
v -0.2381956634187532 1.4608112459020246 0.2693349417892639
v -0.2655987782475416 0.7655131984344513 -0.10591123671953875
v -0.24389275603917518 0.7221837519854487 0.13934660244225633
vt 0.3125 0.6875
vt 0.4375 0.6875
vt 0.4375 0.5
vt 0.3125 0.5
vt 0.25 0.6875
vt 0.3125 0.6875
vt 0.3125 0.5
vt 0.25 0.5
vt 0.5 0.6875
vt 0.625 0.6875
vt 0.625 0.5
vt 0.5 0.5
vt 0.4375 0.6875
vt 0.5 0.6875
vt 0.5 0.5
vt 0.4375 0.5
vt 0.4375 0.6875
vt 0.3125 0.6875
vt 0.3125 0.75
vt 0.4375 0.75
vt 0.5625 0.75
vt 0.4375 0.75
vt 0.4375 0.6875
vt 0.5625 0.6875
vn -0.08682408883346539 0.1733177857960101 -0.9810313566471802
vn 0.9961946980917455 0.0075961234938959985 -0.08682408883346539
vn 0.08682408883346539 -0.1733177857960101 0.9810313566471802
vn -0.9961946980917455 -0.0075961234938959985 0.08682408883346539
vn 0.007596123493895997 0.9848366585554348 0.1733177857960101
vn -0.007596123493895997 -0.9848366585554348 -0.1733177857960101
usemtl m_c3fb989f-e71e-4acf-59b7-53ef3bfde304
f 28/76/19 31/75/19 29/74/19 26/73/19
f 27/80/20 28/79/20 26/78/20 25/77/20
f 32/84/21 27/83/21 25/82/21 30/81/21
f 31/88/22 32/87/22 30/86/22 29/85/22
f 30/92/23 25/91/23 26/90/23 29/89/23
f 31/96/24 28/95/24 27/94/24 32/93/24
o Right Arm Layer
v 0.4404168122462664 1.33421490061412 0.2695955338896858
v 0.42786108466071315 1.583079958110456 0.13917276225013375
v 0.5362406400966301 0.9781043593645655 -0.4191385504469709
v 0.5236849125110768 1.2269694168609013 -0.549561322086523
v 0.149017217399329 1.5560141446587155 0.11437151363416387
v 0.16157294498488217 1.3071490871623794 0.24479428527371594
v 0.24484104524969275 1.199903603409161 -0.5743625707024929
v 0.2573967728352459 0.951038545912825 -0.4439397990629408
vt 0.6875 0.4375
vt 0.75 0.4375
vt 0.75 0.25
vt 0.6875 0.25
vt 0.625 0.4375
vt 0.6875 0.4375
vt 0.6875 0.25
vt 0.625 0.25
vt 0.8125 0.4375
vt 0.875 0.4375
vt 0.875 0.25
vt 0.8125 0.25
vt 0.75 0.4375
vt 0.8125 0.4375
vt 0.8125 0.25
vt 0.75 0.25
vt 0.75 0.4375
vt 0.6875 0.4375
vt 0.6875 0.5
vt 0.75 0.5
vt 0.8125 0.5
vt 0.75 0.5
vt 0.75 0.4375
vt 0.8125 0.4375
vn -0.04464258697085579 0.8848535377647502 -0.463725410273963
vn 0.9914448613738105 0.09623400338396607 0.08818221730122623
vn 0.04464258697085579 -0.8848535377647502 0.463725410273963
vn -0.9914448613738105 -0.09623400338396607 -0.08818221730122623
vn -0.12265449964846559 0.4558214927994298 0.8815796279509207
vn 0.12265449964846559 -0.4558214927994298 -0.8815796279509207
usemtl m_c3fb989f-e71e-4acf-59b7-53ef3bfde304
f 36/100/25 39/99/25 37/98/25 34/97/25
f 35/104/26 36/103/26 34/102/26 33/101/26
f 40/108/27 35/107/27 33/106/27 38/105/27
f 39/112/28 40/111/28 38/110/28 37/109/28
f 38/116/29 33/115/29 34/114/29 37/113/29
f 39/120/30 36/119/30 35/118/30 40/117/30
o Right Arm
v 0.4261444224228883 1.3394148700138286 0.24719729552209024
v 0.4149837756801743 1.560628254455016 0.1312659429535996
v 0.5181352971592375 0.9975487504142564 -0.4139874254411001
v 0.5069746504165235 1.218762134855444 -0.529918778009591
v 0.16712256033672168 1.5365697536090246 0.1092203886282932
v 0.17828320707943562 1.3153563691678372 0.22515174119678383
v 0.2591134350730709 1.1947036340094523 -0.5519643323348975
v 0.27027408181578483 0.9734902495682649 -0.43603297976640665
vt 0.6875 0.6875
vt 0.75 0.6875
vt 0.75 0.5
vt 0.6875 0.5
vt 0.625 0.6875
vt 0.6875 0.6875
vt 0.6875 0.5
vt 0.625 0.5
vt 0.8125 0.6875
vt 0.875 0.6875
vt 0.875 0.5
vt 0.8125 0.5
vt 0.75 0.6875
vt 0.8125 0.6875
vt 0.8125 0.5
vt 0.75 0.5
vt 0.75 0.6875
vt 0.6875 0.6875
vt 0.6875 0.75
vt 0.75 0.75
vt 0.8125 0.75
vt 0.75 0.75
vt 0.75 0.6875
vt 0.8125 0.6875
vn -0.04464258697085579 0.8848535377647502 -0.463725410273963
vn 0.9914448613738105 0.09623400338396607 0.08818221730122623
vn 0.04464258697085579 -0.8848535377647502 0.463725410273963
vn -0.9914448613738105 -0.09623400338396607 -0.08818221730122623
vn -0.12265449964846559 0.4558214927994298 0.8815796279509207
vn 0.12265449964846559 -0.4558214927994298 -0.8815796279509207
usemtl m_c3fb989f-e71e-4acf-59b7-53ef3bfde304
f 44/124/31 47/123/31 45/122/31 42/121/31
f 43/128/32 44/127/32 42/126/32 41/125/32
f 48/132/33 43/131/33 41/130/33 46/129/33
f 47/136/34 48/135/34 46/134/34 45/133/34
f 46/140/35 41/139/35 42/138/35 45/137/35
f 47/144/36 44/143/36 43/142/36 48/141/36
o Left Arm Layer
v -0.16568248916138406 1.3965372964990896 0.25552451181014607
v -0.2417725282244615 1.465505304356332 -0.006306124952595471
v -0.36744785028462973 0.6543057200630225 0.118650158872728
v -0.44353788934770716 0.7232737279202648 -0.14318047789001354
v -0.5026095429220765 1.5197946843471446 0.08379535940726024
v -0.42651950385899906 1.4508266764899023 0.34562599617000184
v -0.7043749040453222 0.7775631079110773 -0.053078993530157825
v -0.6282848649822448 0.708595100053835 0.20875164323258372
vt 0.8125 0.1875
vt 0.875 0.1875
vt 0.875 0
vt 0.8125 0
vt 0.75 0.1875
vt 0.8125 0.1875
vt 0.8125 0
vt 0.75 0
vt 0.9375 0.1875
vt 1 0.1875
vt 1 0
vt 0.9375 0
vt 0.875 0.1875
vt 0.9375 0.1875
vt 0.9375 0
vt 0.875 0
vt 0.875 0.1875
vt 0.8125 0.1875
vt 0.8125 0.25
vt 0.875 0.25
vt 0.9375 0.25
vt 0.875 0.25
vt 0.875 0.1875
vt 0.9375 0.1875
vn -0.2705423611131643 0.2452195834924174 -0.9309533751564143
vn 0.9274204967026312 -0.19302890663400019 -0.32036083327948695
vn 0.2705423611131643 -0.2452195834924174 0.9309533751564143
vn -0.9274204967026312 0.19302890663400019 0.32036083327948695
vn 0.2582596622377545 0.9500564178381661 0.1751991717598952
vn -0.2582596622377545 -0.9500564178381661 -0.1751991717598952
usemtl m_c3fb989f-e71e-4acf-59b7-53ef3bfde304
f 52/148/37 55/147/37 53/146/37 50/145/37
f 51/152/38 52/151/38 50/150/38 49/149/38
f 56/156/39 51/155/39 49/154/39 54/153/39
f 55/160/40 56/159/40 54/158/40 53/157/40
f 54/164/41 49/163/41 50/162/41 53/161/41
f 55/168/42 52/167/42 51/166/42 56/165/42
o Left Arm
v -0.18843596603722076 1.3885402976285934 0.24324651628457078
v -0.2560715563155118 1.4498451935016978 0.010508172495467177
v -0.38213071271553656 0.675997984249969 0.11184713746464942
v -0.4497663029938277 0.7373028801230734 -0.12089120632445419
v -0.4879266804911696 1.498102420160198 0.09059838081533894
v -0.4202910902128786 1.4367975242870936 0.32333672460444246
v -0.6816214271694855 0.7855601067815735 -0.04080099800458245
v -0.6139858368911943 0.7242552109084691 0.1919373457845211
vt 0.5625 0.1875
vt 0.625 0.1875
vt 0.625 0
vt 0.5625 0
vt 0.5 0.1875
vt 0.5625 0.1875
vt 0.5625 0
vt 0.5 0
vt 0.6875 0.1875
vt 0.75 0.1875
vt 0.75 0
vt 0.6875 0
vt 0.625 0.1875
vt 0.6875 0.1875
vt 0.6875 0
vt 0.625 0
vt 0.625 0.1875
vt 0.5625 0.1875
vt 0.5625 0.25
vt 0.625 0.25
vt 0.6875 0.25
vt 0.625 0.25
vt 0.625 0.1875
vt 0.6875 0.1875
vn -0.2705423611131643 0.2452195834924174 -0.9309533751564143
vn 0.9274204967026312 -0.19302890663400019 -0.32036083327948695
vn 0.2705423611131643 -0.2452195834924174 0.9309533751564143
vn -0.9274204967026312 0.19302890663400019 0.32036083327948695
vn 0.2582596622377545 0.9500564178381661 0.1751991717598952
vn -0.2582596622377545 -0.9500564178381661 -0.1751991717598952
usemtl m_c3fb989f-e71e-4acf-59b7-53ef3bfde304
f 60/172/43 63/171/43 61/170/43 58/169/43
f 59/176/44 60/175/44 58/174/44 57/173/44
f 64/180/45 59/179/45 57/178/45 62/177/45
f 63/184/46 64/183/46 62/182/46 61/181/46
f 62/188/47 57/187/47 58/186/47 61/185/47
f 63/192/48 60/191/48 59/190/48 64/189/48
o Right Leg
v 0.24231986335994077 0.7556690582409388 0.06378677938670549
v 0.2451638901676813 0.7446419249727675 -0.18595371361233312
v 0.24287695744698795 0.006399580287952156 0.09687664270218516
v 0.2457209842547285 -0.004627552980219115 -0.15286385029685343
v -0.004819863359940731 0.7443309417590612 -0.1887867793867055
v -0.007663890167681282 0.7553580750272325 0.0609537136123331
v -0.004262769272893534 -0.004938536193925396 -0.1556969160712258
v -0.0071067960806340865 0.006088597074245875 0.09404357692781279
vt 0.0625 0.6875
vt 0.125 0.6875
vt 0.125 0.5
vt 0.0625 0.5
vt 0 0.6875
vt 0.0625 0.6875
vt 0.0625 0.5
vt 0 0.5
vt 0.1875 0.6875
vt 0.25 0.6875
vt 0.25 0.5
vt 0.1875 0.5
vt 0.125 0.6875
vt 0.1875 0.6875
vt 0.1875 0.5
vt 0.125 0.5
vt 0.125 0.6875
vt 0.0625 0.6875
vt 0.0625 0.75
vt 0.125 0.75
vt 0.1875 0.75
vt 0.125 0.75
vt 0.125 0.6875
vt 0.1875 0.6875
vn 0.011376107230962211 -0.0441085330726851 -0.9989619719961546
vn 0.9999350141104881 0.0012439328548251244 0.011332263097489508
vn -0.011376107230962211 0.0441085330726851 0.9989619719961546
vn -0.9999350141104881 -0.0012439328548251244 -0.011332263097489508
vn -0.0007427921160629274 0.9990259706039822 -0.044119817753972904
vn 0.0007427921160629274 -0.9990259706039822 0.044119817753972904
usemtl m_c3fb989f-e71e-4acf-59b7-53ef3bfde304
f 68/196/49 71/195/49 69/194/49 66/193/49
f 67/200/50 68/199/50 66/198/50 65/197/50
f 72/204/51 67/203/51 65/202/51 70/201/51
f 71/208/52 72/207/52 70/206/52 69/205/52
f 70/212/53 65/211/53 66/210/53 69/209/53
f 71/216/54 68/215/54 67/214/54 72/213/54
o Right Leg Layer
v 0.25775449015311985 0.7719874713117434 0.07888325465763785
v 0.26095402031182796 0.7595819463850506 -0.20207479996628058
v 0.25833479649379404 -0.008501568222617717 0.11335186227792918
v 0.26153432665250215 -0.0209070931493104 -0.16760619234598925
v -0.0202777024067468 0.759232090269631 -0.2052619989624495
v -0.023477232565454923 0.7716376151963238 0.07569605566146892
v -0.01969739606607264 -0.021256949264729964 -0.17079339134215818
v -0.02289692622478076 -0.008851424338037282 0.11016466328176025
vt 0.0625 0.4375
vt 0.125 0.4375
vt 0.125 0.25
vt 0.0625 0.25
vt 0 0.4375
vt 0.0625 0.4375
vt 0.0625 0.25
vt 0 0.25
vt 0.1875 0.4375
vt 0.25 0.4375
vt 0.25 0.25
vt 0.1875 0.25
vt 0.125 0.4375
vt 0.1875 0.4375
vt 0.1875 0.25
vt 0.125 0.25
vt 0.125 0.4375
vt 0.0625 0.4375
vt 0.0625 0.5
vt 0.125 0.5
vt 0.1875 0.5
vt 0.125 0.5
vt 0.125 0.4375
vt 0.1875 0.4375
vn 0.011376107230962211 -0.0441085330726851 -0.9989619719961546
vn 0.9999350141104881 0.0012439328548251244 0.011332263097489508
vn -0.011376107230962211 0.0441085330726851 0.9989619719961546
vn -0.9999350141104881 -0.0012439328548251244 -0.011332263097489508
vn -0.0007427921160629274 0.9990259706039822 -0.044119817753972904
vn 0.0007427921160629274 -0.9990259706039822 0.044119817753972904
usemtl m_c3fb989f-e71e-4acf-59b7-53ef3bfde304
f 76/220/55 79/219/55 77/218/55 74/217/55
f 75/224/56 76/223/56 74/222/56 73/221/56
f 80/228/57 75/227/57 73/226/57 78/225/57
f 79/232/58 80/231/58 78/230/58 77/229/58
f 78/236/59 73/235/59 74/234/59 77/233/59
f 79/240/60 76/239/60 75/238/60 80/237/60
o Left Leg Layer
v 0.039617615645482274 0.7630253345320629 0.12060249106089246
v 0.003472606887278157 0.7388058529344795 -0.15726171597739028
v -0.032301950964983075 -0.0111039562071177 0.1974333420142437
v -0.0684469597231872 -0.03532343780470115 -0.08043086502403904
v -0.2742408329810637 0.7679398370975042 -0.1236757250990265
v -0.23809582422285958 0.7921593186950876 0.15418848193925624
v -0.34616039959152906 -0.006189453641676425 -0.04684487414567528
v -0.3100153908333249 0.01803002795590703 0.23101933289260745
vt 0.0625 0.1875
vt 0.125 0.1875
vt 0.125 0
vt 0.0625 0
vt 0 0.1875
vt 0.0625 0.1875
vt 0.0625 0
vt 0 0
vt 0.1875 0.1875
vt 0.25 0.1875
vt 0.25 0
vt 0.1875 0
vt 0.125 0.1875
vt 0.1875 0.1875
vt 0.1875 0
vt 0.125 0
vt 0.125 0.1875
vt 0.0625 0.1875
vt 0.0625 0.25
vt 0.125 0.25
vt 0.1875 0.25
vt 0.125 0.25
vt 0.125 0.1875
vt 0.1875 0.1875
vn -0.1285155866958369 -0.08611371234696341 -0.9879616250250055
vn 0.9874255639763264 -0.10358749924631015 -0.11941685645640446
vn 0.1285155866958369 0.08611371234696341 0.9879616250250055
vn -0.9874255639763264 0.10358749924631015 0.11941685645640446
vn 0.09205704526139566 0.9908854921461512 -0.09834348922028958
vn -0.09205704526139566 -0.9908854921461512 0.09834348922028958
usemtl m_c3fb989f-e71e-4acf-59b7-53ef3bfde304
f 84/244/61 87/243/61 85/242/61 82/241/61
f 83/248/62 84/247/62 82/246/62 81/245/62
f 88/252/63 83/251/63 81/250/63 86/249/63
f 87/256/64 88/255/64 86/254/64 85/253/64
f 86/260/65 81/259/65 82/258/65 85/257/65
f 87/264/66 84/263/66 83/262/66 88/261/66
o Left Leg
v 0.020742643834020413 0.7478157766375817 0.10856809607107512
v -0.011386252839938799 0.7262873485508408 -0.13842231018517623
v -0.048300140112026324 0.004651657527968207 0.1823257129862923
v -0.08042903678598554 -0.016876770558772642 -0.06466469326995905
v -0.2582426438340204 0.7521842233624183 -0.10856809607107512
v -0.2261137471600612 0.7737126514491592 0.13842231018517623
v -0.32728542778006714 0.009020104252804891 -0.03481047915585792
v -0.29515653110610796 0.030548532339545742 0.2121799271003934
vt 0.3125 0.1875
vt 0.375 0.1875
vt 0.375 0
vt 0.3125 0
vt 0.25 0.1875
vt 0.3125 0.1875
vt 0.3125 0
vt 0.25 0
vt 0.4375 0.1875
vt 0.5 0.1875
vt 0.5 0
vt 0.4375 0
vt 0.375 0.1875
vt 0.4375 0.1875
vt 0.4375 0
vt 0.375 0
vt 0.375 0.1875
vt 0.3125 0.1875
vt 0.3125 0.25
vt 0.375 0.25
vt 0.4375 0.25
vt 0.375 0.25
vt 0.375 0.1875
vt 0.4375 0.1875
vn -0.1285155866958369 -0.08611371234696341 -0.9879616250250055
vn 0.9874255639763264 -0.10358749924631015 -0.11941685645640446
vn 0.1285155866958369 0.08611371234696341 0.9879616250250055
vn -0.9874255639763264 0.10358749924631015 0.11941685645640446
vn 0.09205704526139566 0.9908854921461512 -0.09834348922028958
vn -0.09205704526139566 -0.9908854921461512 0.09834348922028958
usemtl m_c3fb989f-e71e-4acf-59b7-53ef3bfde304
f 92/268/67 95/267/67 93/266/67 90/265/67
f 91/272/68 92/271/68 90/270/68 89/269/68
f 96/276/69 91/275/69 89/274/69 94/273/69
f 95/280/70 96/279/70 94/278/70 93/277/70
f 94/284/71 89/283/71 90/282/71 93/281/71
f 95/288/72 92/287/72 91/286/72 96/285/72